PathFileType	4	(X/Y/Z)	c:/Users/goper/Files/vsCode/490R/osim_files/C08/C08_Fast_02.trc
DataRate	CameraRate	NumFrames	NumMarkers	Units                	OrigDataRate	OrigDataStartFrame	OrigNumFrames
250.00	250.00	4	36	mm	250.0	801	2135
                Frame#	Time	LPSIS			LASIS			LTH1			LTH2			LTH3			LTH4			LLFE			LMFE			LSH1			LSH2			LSH3			LSH4			LLMAL			LMMAL			LCAL			LMTP5			LTOE			LMTP1			RPSIS			RASIS			RTH1			RTH2			RTH3			RTH4			RLFE			RMFE			RSH1			RSH2			RSH3			RSH4			RLMAL			RMMAL			RCAL			RMTP1			RTOE			RMTP5		
		X1	Y1	Z1	X2	Y2	Z2	X3	Y3	Z3	X4	Y4	Z4	X5	Y5	Z5	X6	Y6	Z6	X7	Y7	Z7	X8	Y8	Z8	X9	Y9	Z9	X10	Y10	Z10	X11	Y11	Z11	X12	Y12	Z12	X13	Y13	Z13	X14	Y14	Z14	X15	Y15	Z15	X16	Y16	Z16	X17	Y17	Z17	X18	Y18	Z18	X19	Y19	Z19	X20	Y20	Z20	X21	Y21	Z21	X22	Y22	Z22	X23	Y23	Z23	X24	Y24	Z24	X25	Y25	Z25	X26	Y26	Z26	X27	Y27	Z27	X28	Y28	Z28	X29	Y29	Z29	X30	Y30	Z30	X31	Y31	Z31	X32	Y32	Z32	X33	Y33	Z33	X34	Y34	Z34	X35	Y35	Z35	X36	Y36	Z36

801	3.20000	954.62048	1058.79456	226.29810	749.58954	1022.37616	309.00403	850.05798	739.71930	368.76273	855.24023	663.02454	346.72540	860.30914	591.45886	338.78168	777.69733	666.99640	325.51215	865.01935	541.70312	327.85883	863.83173	535.44958	197.59795	931.78418	419.77222	336.77487	932.57013	373.05524	335.00574	870.41852	415.32977	331.99295	879.05560	370.04950	327.84497	962.64557	104.78817	274.75510	941.49323	112.70554	184.57239	1030.00757	83.04480	218.78215	851.35156	46.25552	303.32645	789.06006	59.40154	242.17061	834.06842	24.35989	193.44814	955.03998	1054.60205	166.00545	762.39972	1028.32581	77.24631	728.15192	768.67444	9.23258	696.45984	696.51965	22.74525	710.93591	727.14368	15.62729	632.91724	728.21759	56.75196	648.29944	561.45404	47.82583	643.94934	537.72620	151.77495	717.11627	499.31561	33.92153	725.56744	455.81363	26.67918	658.51697	479.62851	40.29542	674.50354	438.52240	33.13514	831.16718	171.70346	69.85137	798.66589	160.49774	156.26373	890.90015	161.70377	142.41872	700.66901	63.86925	130.72363	682.27979	83.60210	76.83449	740.28131	78.52194	21.76463
802	3.20400	949.17554	1058.54077	225.96358	745.79675	1021.65430	309.00885	847.96301	740.07697	368.90353	853.22058	663.11450	347.30997	858.11932	591.38483	338.76160	776.41296	668.03210	327.31870	863.22223	541.69958	327.89044	861.75769	535.36731	197.65736	930.97192	420.26978	336.54245	931.52820	373.26230	334.83704	869.27820	415.33316	332.05847	878.03046	370.01996	327.85471	962.41992	105.01115	274.53973	941.19165	112.86266	184.37326	1030.05371	83.64300	218.62468	851.29541	46.18976	303.32327	788.91534	59.20007	242.24947	834.27332	24.37497	193.42137	949.70349	1054.57141	165.57173	756.44916	1027.84387	77.41060	720.42200	769.75555	8.39712	689.18304	696.94281	22.89039	700.66248	720.36505	17.41340	625.67767	728.73853	56.98806	640.80414	561.95831	48.29051	636.52661	537.98737	152.57773	708.87793	498.15524	34.12661	716.29309	454.41519	26.85703	649.74670	479.83472	40.68616	665.10468	438.35913	33.07620	814.81409	167.82391	70.33101	781.46368	157.10919	156.35391	873.89838	155.82681	142.79799	680.38806	63.28981	130.63008	663.39093	83.51279	76.18379	721.63196	77.16512	21.29614
803	3.20800	943.69342	1058.22205	225.58112	743.72467	1020.88953	309.44504	844.19421	739.39734	369.01889	850.48767	662.96954	347.32251	855.89465	591.28729	338.71158	773.62787	667.34271	327.49072	861.46362	541.71991	328.01688	859.61249	535.32587	197.75787	929.39899	420.27768	336.39883	930.20099	373.06903	334.76385	868.53583	415.59793	332.21246	876.99805	369.96548	327.82791	962.20312	105.22337	274.35971	940.82202	113.10390	184.29024	1029.81885	83.90972	218.39725	851.25006	46.13970	303.31595	788.78857	59.01246	242.33815	834.12000	24.25999	193.46217	943.71057	1054.01294	165.33899	750.52722	1027.29248	77.56646	714.37604	769.32764	9.69749	681.98083	697.55750	23.38287	690.42731	713.25085	19.27189	619.09222	729.36371	57.86363	633.43701	562.40314	48.72179	629.26996	538.31512	153.39288	700.31372	496.66592	34.49585	707.08209	452.97614	27.02432	641.10071	479.92426	40.79193	655.50958	438.11514	33.16485	798.28210	163.86058	70.49622	764.24615	153.82339	156.36002	856.45630	149.84854	143.49062	661.62268	62.66037	129.23372	644.79565	83.66223	75.45805	702.94116	75.86488	20.87323
804	3.21200	938.22772	1057.87354	225.17921	738.50262	1020.22900	309.72287	840.27490	738.96234	369.14548	846.92963	662.45966	346.74597	853.73273	591.23944	338.74643	770.44971	666.47375	327.72809	859.58954	541.68219	328.05081	857.40887	535.23187	197.91095	928.12634	420.51468	336.22928	929.64716	373.73322	334.58923	867.11737	415.36749	332.25000	876.04669	369.95270	327.97388	962.25281	105.60842	274.12210	940.50500	113.27700	184.13577	1029.22412	83.83193	218.08167	851.21521	46.10495	303.32190	788.69684	58.79559	242.37935	833.54852	23.93604	193.55794	938.68311	1054.06140	164.80573	744.57654	1026.68225	77.64208	707.74500	769.52197	9.90303	675.39734	697.97711	24.16426	680.26434	705.87323	21.18017	612.41876	729.81305	58.29377	626.20844	562.70209	49.14215	622.14398	538.47552	154.27805	692.26105	495.28647	34.61444	697.92645	451.40756	27.11743	632.68549	479.97754	40.59496	646.07086	437.91953	33.13659	781.64087	159.95419	70.65176	746.95123	150.69479	156.42557	838.84943	143.61525	143.44348	642.07825	62.33511	128.63933	626.05945	83.97848	74.89883	684.15289	74.73235	20.48024
